<!--?xml version="1.0" encoding="utf-8"?-->
<!-- Generator: Adobe Illustrator 18.1.1, SVG Export Plug-In . SVG Version: 6.00 Build 0)  -->

<svg version="1.1" id="_x32_" xmlns="http://www.w3.org/2000/svg" xmlns:xlink="http://www.w3.org/1999/xlink" x="0px" y="0px" viewBox="0 0 512 512" style="width: 512px; height: 512px; opacity: 1;" xml:space="preserve">
<style type="text/css">
	.st0{fill:#4B4B4B;}
</style>
<g>
	<path class="st0" d="M480.664,170.219c29.581-27.814,38.272-74.785,25.849-105.37C483.3,7.711,428.974,13.152,419.031,17.132
		c-4.138,1.658,11.328,6.8,21.868,15.905c14.745,12.738,26.288,32.575,17.896,55.662c-14.894,40.968-47.236,54.028-106.805,50.621
		c-0.738-1.502-1.708-2.886-2.969-4.039c-2.811-2.563-6.568-3.832-10.349-3.484c0,0-15.077-5.315-28.992,2.638
		c-13.916,7.953-53.68,11.925-53.68,11.925s-39.764-3.972-53.68-11.925c-13.915-7.953-28.991-2.638-28.991-2.638
		c-3.782-0.348-7.538,0.92-10.342,3.484c-1.269,1.152-2.239,2.537-2.977,4.039c-59.568,3.408-91.91-9.653-106.804-50.621
		c-8.393-23.087,3.15-42.924,17.896-55.662c10.54-9.105,26.015-14.247,21.868-15.905c-9.943-3.98-64.27-9.421-87.482,47.717
		c-12.423,30.585-3.731,77.556,25.85,105.37c30.542,28.719,69.975,46.108,128.971,51.052c2.197,8.044,4.76,23.717-3.715,36.43
		c-11.934,17.888,17.896,77.539,17.896,93.445c0,15.906,35.783,67.596,41.746,114.194c2.778,21.694,23.859,13.915,39.764,31.812
		c15.906-17.897,36.986-10.117,39.764-31.812c5.963-46.598,41.755-98.288,41.755-114.194c0-15.906,29.821-75.557,17.888-93.445
		c-8.468-12.713-5.913-28.387-3.715-36.43C410.688,216.328,450.121,198.938,480.664,170.219z M201.524,337.222
		c-13.916,1.99-17.888-19.879-17.888-19.879c-5.971-11.925-16.461-45.752,1.982-49.699
		C213.457,261.674,215.448,335.24,201.524,337.222z M242.084,455.396c-5.464,0-13.666,2.736-12.306-6.834
		c1.369-9.57,5.474-23.236,5.474-30.07c0-6.833,9.57-1.369,9.57,8.202C244.821,436.264,247.55,455.396,242.084,455.396z
		 M269.916,455.396c-5.465,0-2.728-19.132-2.728-28.702c0-9.57,9.562-15.035,9.562-8.202c0,6.834,4.105,20.5,5.473,30.07
		C283.59,458.132,275.389,455.396,269.916,455.396z M328.364,317.344c0,0-3.972,21.868-17.888,19.879
		c-13.924-1.982-11.934-75.548,15.906-69.578C344.826,271.592,334.335,305.418,328.364,317.344z" style="fill: rgba(195, 63, 29, 0.97);"></path>
</g>
</svg>
